<svg width="8878" height="1530" viewBox="0 0 8878 1530" fill="none" xmlns="http://www.w3.org/2000/svg">
<circle cx="765" cy="765" r="650" fill="white" stroke="black" stroke-width="230"/>
<path d="M2110.89 1183H1814.41V346.636H2113.34C2197.47 346.636 2269.89 363.38 2330.6 396.867C2391.31 430.082 2438 477.863 2470.67 540.209C2503.62 602.555 2520.09 677.152 2520.09 764.001C2520.09 851.123 2503.62 925.992 2470.67 988.611C2438 1051.23 2391.04 1099.28 2329.78 1132.77C2268.8 1166.26 2195.83 1183 2110.89 1183ZM1991.23 1031.49H2103.54C2155.81 1031.49 2199.78 1022.23 2235.45 1003.72C2271.38 984.935 2298.34 955.94 2316.31 916.736C2334.55 877.259 2343.67 826.348 2343.67 764.001C2343.67 702.2 2334.55 651.697 2316.31 612.492C2298.34 573.288 2271.52 544.429 2235.85 525.915C2200.19 507.402 2156.22 498.146 2103.95 498.146H1991.23V1031.49ZM2647.81 1183V555.727H2821.78V1183H2647.81ZM2735.2 474.868C2709.34 474.868 2687.15 466.292 2668.64 449.14C2650.39 431.716 2641.27 410.888 2641.27 386.658C2641.27 362.699 2650.39 342.144 2668.64 324.992C2687.15 307.568 2709.34 298.856 2735.2 298.856C2761.07 298.856 2783.12 307.568 2801.36 324.992C2819.87 342.144 2829.13 362.699 2829.13 386.658C2829.13 410.888 2819.87 431.716 2801.36 449.14C2783.12 466.292 2761.07 474.868 2735.2 474.868ZM3135.11 820.358V1183H2961.14V555.727H3126.94V666.398H3134.29C3148.18 629.916 3171.45 601.057 3204.13 579.822C3236.8 558.314 3276.41 547.56 3322.96 547.56C3366.52 547.56 3404.5 557.089 3436.9 576.146C3469.3 595.204 3494.48 622.429 3512.45 657.822C3530.42 692.943 3539.41 734.87 3539.41 783.604V1183H3365.44V814.641C3365.71 776.253 3355.91 746.305 3336.03 724.797C3316.16 703.017 3288.8 692.126 3253.95 692.126C3230.53 692.126 3209.84 697.163 3191.87 707.236C3174.18 717.31 3160.29 732.012 3150.22 751.342C3140.42 770.399 3135.38 793.405 3135.11 820.358ZM3962.39 1195.25C3897.86 1195.25 3842.32 1182.18 3795.77 1156.05C3749.48 1129.64 3713.82 1092.34 3688.77 1044.15C3663.72 995.689 3651.2 938.38 3651.2 872.222C3651.2 807.698 3663.72 751.069 3688.77 702.336C3713.82 653.603 3749.08 615.623 3794.54 588.398C3840.28 561.172 3893.91 547.56 3955.44 547.56C3996.83 547.56 4035.35 554.23 4071.02 567.57C4106.95 580.638 4138.26 600.377 4164.94 626.786C4191.9 653.194 4212.86 686.409 4227.83 726.43C4242.81 766.179 4250.29 812.735 4250.29 866.097V913.877H3720.62V806.065H4086.53C4086.53 781.017 4081.09 758.829 4070.2 739.499C4059.31 720.169 4044.2 705.058 4024.87 694.168C4005.81 683.006 3983.62 677.425 3958.3 677.425C3931.89 677.425 3908.48 683.55 3888.06 695.802C3867.91 707.781 3852.12 723.98 3840.69 744.399C3829.25 764.546 3823.4 787.007 3823.13 811.782V914.286C3823.13 945.322 3828.85 972.139 3840.28 994.737C3851.99 1017.33 3868.46 1034.76 3889.69 1047.01C3910.93 1059.26 3936.11 1065.39 3965.24 1065.39C3984.57 1065.39 4002.27 1062.66 4018.33 1057.22C4034.4 1051.77 4048.15 1043.61 4059.58 1032.72C4071.02 1021.83 4079.73 1008.49 4085.72 992.695L4246.62 1003.31C4238.45 1041.97 4221.71 1075.73 4196.39 1104.59C4171.34 1133.18 4138.94 1155.5 4099.19 1171.57C4059.72 1187.36 4014.11 1195.25 3962.39 1195.25ZM4633.25 346.636H4851.33L5081.66 908.568H5091.46L5321.78 346.636H5539.86V1183H5368.34V638.629H5361.4L5144.95 1178.92H5028.16L4811.72 636.587H4804.77V1183H4633.25V346.636ZM5861.15 1194.84C5821.13 1194.84 5785.47 1187.9 5754.16 1174.02C5722.85 1159.86 5698.07 1139.03 5679.83 1111.53C5661.86 1083.76 5652.88 1049.19 5652.88 1007.8C5652.88 972.956 5659.28 943.689 5672.07 920.003C5684.87 896.317 5702.29 877.259 5724.34 862.83C5746.4 848.4 5771.44 837.51 5799.49 830.159C5827.8 822.808 5857.48 817.635 5888.51 814.641C5925 810.829 5954.4 807.29 5976.72 804.023C5999.05 800.483 6015.25 795.311 6025.32 788.504C6035.39 781.698 6040.43 771.625 6040.43 758.284V755.834C6040.43 729.97 6032.26 709.959 6015.93 695.802C5999.87 681.645 5977 674.566 5947.32 674.566C5916.01 674.566 5891.1 681.509 5872.59 695.393C5854.07 709.006 5841.82 726.158 5835.83 746.849L5674.93 733.781C5683.1 695.666 5699.16 662.723 5723.12 634.953C5747.08 606.911 5777.98 585.403 5815.82 570.429C5853.94 555.183 5898.04 547.56 5948.14 547.56C5982.99 547.56 6016.34 551.643 6048.19 559.811C6080.32 567.979 6108.77 580.638 6133.54 597.79C6158.59 614.942 6178.33 636.995 6192.76 663.948C6207.19 690.629 6214.4 722.619 6214.4 759.918V1183H6049.42V1096.01H6044.51C6034.44 1115.62 6020.96 1132.91 6004.09 1147.88C5987.21 1162.58 5966.92 1174.15 5943.24 1182.59C5919.55 1190.76 5892.19 1194.84 5861.15 1194.84ZM5910.97 1074.78C5936.57 1074.78 5959.16 1069.74 5978.77 1059.67C5998.37 1049.32 6013.75 1035.44 6024.91 1018.01C6036.07 1000.59 6041.66 980.852 6041.66 958.799V892.233C6036.21 895.772 6028.72 899.039 6019.2 902.034C6009.94 904.757 5999.46 907.343 5987.75 909.793C5976.04 911.971 5964.34 914.013 5952.63 915.919C5940.92 917.553 5930.3 919.05 5920.78 920.411C5900.36 923.406 5882.52 928.17 5867.28 934.705C5852.03 941.239 5840.19 950.087 5831.75 961.249C5823.31 972.139 5819.09 985.752 5819.09 1002.09C5819.09 1025.77 5827.66 1043.88 5844.82 1056.4C5862.24 1068.65 5884.29 1074.78 5910.97 1074.78ZM6349.37 1183V555.727H6518.03V665.173H6524.57C6536 626.241 6555.19 596.838 6582.15 576.963C6609.1 556.816 6640.14 546.743 6675.26 546.743C6683.97 546.743 6693.36 547.287 6703.44 548.376C6713.51 549.465 6722.36 550.963 6729.98 552.869V707.236C6721.81 704.786 6710.52 702.608 6696.09 700.702C6681.66 698.797 6668.45 697.844 6656.47 697.844C6630.88 697.844 6608.01 703.425 6587.87 714.587C6567.99 725.477 6552.2 740.724 6540.49 760.326C6529.06 779.928 6523.34 802.525 6523.34 828.117V1183H6349.37ZM6977.56 1002.5L6977.97 793.813H7003.29L7204.21 555.727H7403.91L7133.97 870.997H7092.73L6977.56 1002.5ZM6819.93 1183V346.636H6993.9V1183H6819.93ZM7211.97 1183L7027.39 909.793L7143.37 786.871L7415.76 1183H7211.97ZM7749.3 1195.25C7684.78 1195.25 7629.24 1182.18 7582.68 1156.05C7536.4 1129.64 7500.73 1092.34 7475.68 1044.15C7450.64 995.689 7438.11 938.38 7438.11 872.222C7438.11 807.698 7450.64 751.069 7475.68 702.336C7500.73 653.603 7535.99 615.623 7581.46 588.398C7627.19 561.172 7680.83 547.56 7742.36 547.56C7783.74 547.56 7822.26 554.23 7857.93 567.57C7893.87 580.638 7925.18 600.377 7951.86 626.786C7978.81 653.194 7999.77 686.409 8014.75 726.43C8029.72 766.179 8037.21 812.735 8037.21 866.097V913.877H7507.54V806.065H7873.45C7873.45 781.017 7868 758.829 7857.11 739.499C7846.22 720.169 7831.11 705.058 7811.78 694.168C7792.72 683.006 7770.54 677.425 7745.22 677.425C7718.81 677.425 7695.39 683.55 7674.97 695.802C7654.83 707.781 7639.04 723.98 7627.6 744.399C7616.17 764.546 7610.31 787.007 7610.04 811.782V914.286C7610.04 945.322 7615.76 972.139 7627.19 994.737C7638.9 1017.33 7655.37 1034.76 7676.61 1047.01C7697.84 1059.26 7723.03 1065.39 7752.16 1065.39C7771.49 1065.39 7789.19 1062.66 7805.25 1057.22C7821.31 1051.77 7835.06 1043.61 7846.49 1032.72C7857.93 1021.83 7866.64 1008.49 7872.63 992.695L8033.53 1003.31C8025.37 1041.97 8008.62 1075.73 7983.3 1104.59C7958.25 1133.18 7925.86 1155.5 7886.11 1171.57C7846.63 1187.36 7801.03 1195.25 7749.3 1195.25ZM8484.39 555.727V686.409H8106.63V555.727H8484.39ZM8192.39 405.443H8366.36V990.244C8366.36 1006.31 8368.81 1018.83 8373.71 1027.82C8378.61 1036.53 8385.42 1042.65 8394.13 1046.19C8403.12 1049.73 8413.46 1051.5 8425.17 1051.5C8433.34 1051.5 8441.51 1050.82 8449.67 1049.46C8457.84 1047.83 8464.1 1046.6 8468.46 1045.78L8495.82 1175.24C8487.11 1177.96 8474.86 1181.09 8459.07 1184.63C8443.27 1188.45 8424.08 1190.76 8401.48 1191.58C8359.56 1193.21 8322.8 1187.63 8291.22 1174.83C8259.91 1162.04 8235.55 1142.16 8218.12 1115.21C8200.7 1088.26 8192.12 1054.22 8192.39 1013.11V405.443Z" fill="black"/>
</svg>
